<?xml version="1.0" encoding="UTF-8"?>
<!-- Created with Inkscape (http://www.inkscape.org/) -->
<svg width="46.034mm" height="46.034mm" version="1.1" viewBox="0 0 46.034 46.034" xmlns="http://www.w3.org/2000/svg">
 <g transform="translate(-69.768 -82.932)">
  <g transform="scale(.8456 1.1826)" fill="#0f0" stroke-width=".22373" aria-label="∀">
   <path d="m117.61 94.927h-7.5036l-1.5145-4.8326h-2.3543l6.1681 18.959h3.0565l6.1681-18.959-2.3338-0.62895zm-6.884 1.9826h6.2645l-3.1116 10.133z" fill="#0f0"/>
  </g>
  <g transform="matrix(0 -.84976 1.1768 0 0 0)" fill="#f00" stroke-width=".22483" aria-label="∀">
   <path d="m-122.24 64.142h-7.5406l-1.522-4.8564h-2.3659l6.1985 19.052h3.0716l6.1985-19.052h-2.5181zm-6.918 1.9924h6.2953l-3.1269 10.183z"/>
  </g>
  <g transform="matrix(.80108 .31563 -.39258 1.0936 0 0)" fill="#ff0" stroke-width=".22483" aria-label="∀">
   <path d="m157.08 38.714h-7.5405l-1.5219-4.8564h-2.3659l6.2078 19.06 2.4474-0.0277 6.8132-19.032h-2.5181zm-6.9179 1.9924h6.2953l-3.1269 10.183z"/>
  </g>
  <g transform="scale(.8541 1.1708)" fill="#00f" stroke-width=".22946" aria-label="∀">
   <path d="m110.18 75.796h-7.6957l-1.5533-4.9563h-2.4146l6.2229 18.916 3.1929 0.53032 6.371-19.446h-2.5699zm-7.0603 2.0334h6.4249l-3.1912 10.393z"/>
  </g>
 </g>
</svg>
